<svg width="40" height="40" viewBox="0 0 40 40" fill="none" xmlns="http://www.w3.org/2000/svg">
<g clip-path="url(#clip0_701_564)">
<path fill-rule="evenodd" clip-rule="evenodd" d="M27.8021 22.2982C27.8021 22.2982 29.4191 23.8952 29.8191 24.6342C29.8269 24.6449 29.8329 24.6567 29.8371 24.6692C30.0001 24.9422 30.0401 25.1562 29.9601 25.3142C29.8251 25.5752 29.3681 25.7062 29.2131 25.7172H26.3551C26.1561 25.7172 25.7421 25.6652 25.2381 25.3172C24.8531 25.0482 24.4701 24.6052 24.0991 24.1722C23.5451 23.5292 23.0661 22.9712 22.5811 22.9712C22.5198 22.9711 22.459 22.9812 22.4011 23.0012C22.0341 23.1172 21.5681 23.6402 21.5681 25.0332C21.5681 25.4692 21.2241 25.7172 20.9831 25.7172H19.6741C19.2281 25.7172 16.9061 25.5612 14.8471 23.3902C12.3241 20.7322 10.0581 15.4002 10.0361 15.3532C9.89509 15.0082 10.1911 14.8202 10.5111 14.8202H13.3971C13.7841 14.8202 13.9101 15.0542 13.9981 15.2642C14.1001 15.5052 14.4781 16.4692 15.0981 17.5522C16.1021 19.3142 16.7191 20.0312 17.2121 20.0312C17.3047 20.0315 17.3958 20.0073 17.4761 19.9612C18.1201 19.6072 18.0001 17.3072 17.9701 16.8332C17.9701 16.7412 17.9691 15.8062 17.6391 15.3542C17.4031 15.0302 17.0011 14.9042 16.7581 14.8582C16.8231 14.7642 16.9611 14.6202 17.1381 14.5352C17.5791 14.3152 18.3761 14.2832 19.1671 14.2832H19.6061C20.4641 14.2952 20.6861 14.3502 20.9981 14.4292C21.6261 14.5792 21.6381 14.9862 21.5831 16.3722C21.5671 16.7682 21.5501 17.2142 21.5501 17.7392C21.5501 17.8512 21.5451 17.9762 21.5451 18.1032C21.5261 18.8142 21.5011 19.6152 22.0031 19.9442C22.0682 19.9848 22.1434 20.0062 22.2201 20.0062C22.3941 20.0062 22.9151 20.0062 24.3281 17.5812C24.9481 16.5102 25.4281 15.2472 25.4611 15.1522C25.4891 15.0992 25.5731 14.9502 25.6751 14.8902C25.7476 14.8516 25.8289 14.8323 25.9111 14.8342H29.3061C29.6761 14.8342 29.9271 14.8902 29.9761 15.0302C30.0581 15.2572 29.9601 15.9502 28.4101 18.0462C28.1491 18.3952 27.9201 18.6972 27.7191 18.9612C26.3141 20.8052 26.3141 20.8982 27.8021 22.2982Z" fill="white"/>
</g>
<rect x="1" y="1" width="38" height="38" rx="4" stroke="#D5621D" stroke-width="2"/>
<defs>
<clipPath id="clip0_701_564">
<rect width="20" height="20" fill="white" transform="translate(10 10)"/>
</clipPath>
</defs>
</svg>
